<svg xmlns="http://www.w3.org/2000/svg" width="1024" height="1024" viewBox="0 0 1024 1024" role="img" aria-labelledby="title desc">
  <title id="title">Free Salesforce Consultant Copilot Logo</title>
  <desc id="desc">Rounded square gradient icon with cloud, chat bubble, and AI network nodes.</desc>
  <defs>
    <linearGradient id="bgGradient" x1="128" y1="96" x2="896" y2="928" gradientUnits="userSpaceOnUse">
      <stop offset="0" stop-color="#0A5CFF"/>
      <stop offset="1" stop-color="#0AAFE6"/>
    </linearGradient>
    <radialGradient id="glowGradient" cx="0" cy="0" r="1" gradientUnits="userSpaceOnUse" gradientTransform="translate(724 256) rotate(138) scale(420 360)">
      <stop offset="0" stop-color="#FFFFFF" stop-opacity="0.40"/>
      <stop offset="1" stop-color="#FFFFFF" stop-opacity="0"/>
    </radialGradient>
    <filter id="softShadow" x="-20%" y="-20%" width="140%" height="140%">
      <feDropShadow dx="0" dy="16" stdDeviation="18" flood-color="#06234D" flood-opacity="0.28"/>
    </filter>
  </defs>

  <rect x="72" y="72" width="880" height="880" rx="220" fill="url(#bgGradient)"/>
  <rect x="72" y="72" width="880" height="880" rx="220" fill="url(#glowGradient)"/>

  <circle cx="252" cy="248" r="42" fill="#FFFFFF" opacity="0.20"/>
  <circle cx="822" cy="774" r="34" fill="#FFFFFF" opacity="0.18"/>
  <circle cx="190" cy="786" r="18" fill="#FFFFFF" opacity="0.24"/>

  <g filter="url(#softShadow)">
    <path d="M304 529c0-64 52-116 116-116 17 0 33 4 48 10 24-42 70-70 122-70 75 0 136 61 136 136 48 8 86 49 86 99 0 56-46 102-102 102H369c-36 0-65-29-65-65 0-35 28-64 64-64h0z" fill="#FFFFFF" opacity="0.96"/>
  </g>

  <g filter="url(#softShadow)">
    <rect x="300" y="470" width="424" height="250" rx="74" fill="#0B2D86"/>
    <path d="M430 700h110l-74 92c-9 12-28 5-28-10V700z" fill="#0B2D86"/>
  </g>

  <g stroke="#FFFFFF" stroke-width="16" stroke-linecap="round" stroke-linejoin="round" fill="none">
    <path d="M418 596l94-52 104 62"/>
    <path d="M418 596l96 58"/>
  </g>
  <circle cx="418" cy="596" r="22" fill="#FFFFFF"/>
  <circle cx="512" cy="544" r="22" fill="#FFFFFF"/>
  <circle cx="616" cy="606" r="22" fill="#FFFFFF"/>
  <circle cx="514" cy="654" r="22" fill="#FFFFFF"/>

  <path d="M693 494l17 36 39 6-28 27 7 39-35-19-35 19 7-39-28-27 39-6 17-36z" fill="#FF9D2D"/>
</svg>
